<?xml version="1.0" standalone="no"?>
<!DOCTYPE svg PUBLIC "-//W3C//DTD SVG 20010904//EN"
 "http://www.w3.org/TR/2001/REC-SVG-20010904/DTD/svg10.dtd">
<svg version="1.0" xmlns="http://www.w3.org/2000/svg"
 width="32.000000pt" height="32.000000pt" viewBox="0 0 32.000000 32.000000"
 preserveAspectRatio="xMidYMid meet">

<g transform="translate(0.000000,32.000000) scale(0.100000,-0.100000)"
fill="#000000" stroke="none">
<path d="M0 315 c0 -1 7 -16 15 -31 8 -16 18 -46 21 -67 6 -33 20 -50 106
-123 54 -46 107 -84 118 -84 28 0 50 27 50 62 0 25 -16 46 -82 114 -45 46 -87
84 -93 84 -6 0 -39 11 -73 24 -34 14 -62 23 -62 21z m212 -132 c75 -75 98
-114 78 -138 -23 -28 -47 -16 -144 71 -73 65 -96 92 -96 110 0 14 -4 33 -9 43
-9 16 -6 16 47 -1 44 -15 72 -34 124 -85z"/>
<path d="M191 164 c41 -44 76 -79 79 -77 2 2 -31 38 -75 81 l-79 77 75 -81z"/>
</g>
</svg>
