<?xml version="1.0" encoding="UTF-8"?>
<svg width="700pt" height="700pt" version="1.1" viewBox="0 0 700 700" xmlns="http://www.w3.org/2000/svg">
 <path d="m353.5 17.5c-52.652 0-104.12 15.617-147.9 44.871-43.773 29.254-77.891 70.836-98.031 119.48-20.141 48.648-25.402 102.18-15.117 153.81s35.652 99.066 72.895 136.28c37.242 37.219 84.688 62.559 136.33 72.809 51.645 10.25 105.17 4.9531 153.8-15.219 48.637-20.172 90.195-54.316 119.42-98.113 29.227-43.793 44.809-95.273 44.773-147.93-0.09375-70.551-28.172-138.18-78.074-188.05-49.902-49.867-117.55-77.902-188.1-77.949zm0 497.18c-61.312 0-120.11-24.355-163.46-67.711-43.355-43.352-67.711-102.15-67.711-163.46s24.355-120.11 67.711-163.46c43.352-43.355 102.15-67.711 163.46-67.711s120.11 24.355 163.46 67.711c43.355 43.352 67.711 102.15 67.711 163.46-0.046875 61.297-24.418 120.07-67.762 163.41s-102.12 67.715-163.41 67.762z"/>
</svg>
